# xmcd
#
# Track frame offsets: 
#        150
#        16201
#        39787
#        55371
#        72295
#        90115
#        94963
#        113551
#        131217
#        153159
#        175543
#        194937
#        218453
#
# Disc length: 3190 seconds
#
# Revision: 0
# Processed by: cddbd v1.5.1PL0 Copyright (c) Steve Scherf et al.
# Submitted via: ExactAudioCopy v0.95a5
#
DISCID=a20c740d
DTITLE=Mad Hattie - Soul Fishin'
DYEAR=2000
DGENRE=Blues
TTITLE0=Wanted Man
TTITLE1=Soul Fishin'
TTITLE2=Freeway Lady
TTITLE3=Baby O' Mine
TTITLE4=Hey Jingo
TTITLE5=Absynthe
TTITLE6=If I Were Smater
TTITLE7=Oh Red
TTITLE8=White Devil Blues
TTITLE9=Here Comes Goliath
TTITLE10=(Anywhere But) Tennessee
TTITLE11=Suburban Living
TTITLE12=Clear Blue Sky
EXTD=
EXTT0=
EXTT1=
EXTT2=
EXTT3=
EXTT4=
EXTT5=
EXTT6=
EXTT7=
EXTT8=
EXTT9=
EXTT10=
EXTT11=
EXTT12=
PLAYORDER=
